<?xml version="1.0" standalone="no"?>
<!DOCTYPE svg PUBLIC "-//W3C//DTD SVG 20010904//EN"
 "http://www.w3.org/TR/2001/REC-SVG-20010904/DTD/svg10.dtd">
<svg version="1.0" xmlns="http://www.w3.org/2000/svg"
 width="512.000000pt" height="512.000000pt" viewBox="0 0 512.000000 512.000000"
 preserveAspectRatio="xMidYMid meet">

<g transform="translate(0.000000,512.000000) scale(0.100000,-0.100000)"
fill="#000000" stroke="none">
<path d="M1463 5106 c-102 -32 -176 -97 -222 -196 l-26 -55 -3 -472 -3 -472
-472 -3 -472 -3 -56 -26 c-79 -37 -133 -90 -171 -167 l-33 -67 0 -1690 0
-1690 26 -56 c37 -79 90 -133 167 -171 l67 -33 1690 0 1690 0 67 33 c77 38
130 92 167 171 l26 56 3 472 3 472 472 3 472 3 67 33 c77 38 130 92 167 171
l26 56 0 1690 0 1690 -33 67 c-38 77 -92 130 -171 167 l-56 26 -1675 2 c-1365
1 -1683 -1 -1717 -11z m3341 -302 c14 -14 16 -176 16 -1639 0 -1463 -2 -1625
-16 -1639 -14 -14 -176 -16 -1639 -16 -1463 0 -1625 2 -1639 16 -14 14 -16
176 -16 1639 0 1463 2 1625 16 1639 14 14 176 16 1639 16 1463 0 1625 -2 1639
-16z m-3592 -2261 l3 -1068 26 -56 c37 -79 90 -133 167 -171 l67 -33 1067 -3
1068 -2 0 -439 c0 -386 -2 -441 -16 -455 -14 -14 -176 -16 -1639 -16 -1463 0
-1625 2 -1639 16 -14 14 -16 176 -16 1639 0 1463 2 1625 16 1639 14 14 69 16
455 16 l439 0 2 -1067z"/>
<path d="M3086 4091 c-16 -11 -38 -34 -50 -53 -20 -31 -21 -47 -24 -380 l-3
-348 -347 0 c-323 0 -349 -1 -376 -19 -44 -30 -66 -70 -66 -125 0 -58 24 -102
72 -131 31 -19 54 -20 375 -23 l342 -3 3 -342 c3 -331 4 -343 25 -377 29 -47
71 -70 128 -70 57 0 99 23 128 70 21 34 22 46 25 377 l3 342 342 3 c331 3 343
4 377 25 48 30 70 71 70 130 0 54 -22 95 -66 124 -27 18 -53 19 -376 19 l-347
0 -3 348 c-3 336 -4 348 -25 382 -12 19 -35 43 -51 53 -41 23 -119 22 -156 -2z"/>
</g>
</svg>
