<?xml version="1.0" standalone="no"?>
<!DOCTYPE svg PUBLIC "-//W3C//DTD SVG 20010904//EN"
 "http://www.w3.org/TR/2001/REC-SVG-20010904/DTD/svg10.dtd">
<svg version="1.0" xmlns="http://www.w3.org/2000/svg"
 width="820.000000pt" height="860.000000pt" viewBox="0 0 820.000000 860.000000"
 preserveAspectRatio="xMidYMid meet">

<g transform="translate(0.000000,860.000000) scale(0.100000,-0.100000)"
fill="#000000" stroke="none">
<path d="M3715 8174 c-803 -79 -1592 -415 -2215 -943 -142 -121 -381 -366
-492 -505 -478 -597 -782 -1313 -873 -2056 -25 -203 -31 -625 -11 -830 66
-689 294 -1323 687 -1905 521 -772 1327 -1342 2264 -1599 831 -228 1772 -163
2574 178 708 301 1272 751 1702 1357 248 350 477 827 595 1237 275 957 179
1966 -271 2870 -398 798 -989 1391 -1781 1785 -469 234 -916 364 -1422 412
-191 18 -565 18 -757 -1z m642 -1139 c343 -49 642 -193 906 -437 265 -244 436
-535 511 -868 88 -397 41 -803 -134 -1155 -84 -168 -173 -288 -330 -445 -157
-157 -276 -246 -445 -329 -275 -137 -546 -188 -890 -170 -401 22 -777 193
-1075 488 -328 326 -491 698 -507 1156 -14 417 94 767 332 1084 91 121 281
305 405 393 208 148 482 254 740 287 108 14 377 12 487 -4z m-1740 -3235 c169
-162 324 -270 533 -376 814 -409 1815 -248 2460 397 l79 79 74 -14 c274 -53
514 -201 678 -419 207 -274 360 -665 439 -1119 l22 -127 -38 -53 c-466 -634
-1170 -1108 -1924 -1296 -294 -74 -502 -97 -850 -96 -374 1 -617 34 -945 129
-696 203 -1321 633 -1765 1215 l-72 95 7 60 c22 198 115 544 200 745 187 444
429 705 760 819 74 26 192 57 229 60 4 1 55 -44 113 -99z"/>
</g>
</svg>
